<svg width="80" height="80" xmlns="http://www.w3.org/2000/svg">
 <defs>
  <linearGradient y2="0.51091" y1="0.49298" x2="1.00251" x1="-0.00039" id="b">
   <stop offset="0.01" stop-color="#0FA5E1"/>
   <stop offset="0.35" stop-color="#0C9CDA"/>
   <stop offset="0.91" stop-color="#0483C6"/>
   <stop offset="1" stop-color="#037EC2"/>
  </linearGradient>
  <linearGradient y2="0.50158" y1="0.50158" x2="1.00049" x1="0.00062" id="a">
   <stop offset="0" stop-color="#241E5C"/>
   <stop offset="1" stop-color="#004D9F"/>
  </linearGradient>
 </defs>
 <g>
  <title>background</title>
  <rect fill="none" id="canvas_background" height="82" width="82" y="-1" x="-1"/>
 </g>
 <g>
  <title>Layer 1</title>
  <g id="svg_1" fill="#24a84d">
   <path id="svg_2" d="m27.24823,45.71589l-2.7881,5.8507l-0.2774,0l0.0497,-7.1004l-3.8479,0l-0.0854,12.071l3.2647,0c0.4205,0.0029 0.8329,-0.1146 1.1884,-0.3386s0.6392,-0.5451 0.8174,-0.9252l2.7527,-5.8366l0.2774,0l-0.0498,7.1004l3.848,0l0.0853,-12.071l-3.2647,0c-0.4129,0.0026 -0.8166,0.1211 -1.1651,0.3422c-0.3484,0.221 -0.6275,0.5355 -0.8052,0.9075"/>
   <path id="svg_3" d="m12.80923,45.93589l-1.6431,5.5312l-0.2774,0l-1.5648,-5.5596c-0.1296,-0.4643 -0.4089,-0.8731 -0.7946,-1.1631c-0.3857,-0.2901 -0.8563,-0.4452 -1.3392,-0.4416l-3.8408,0l-0.0854,12.071l3.848,0l0.0498,-7.1004l0.2774,0l2.1338,7.1501l2.7455,0l2.2476,-7.1004l0.2774,0l-0.0498,7.1004l3.848,0l0.0854,-12.071l-3.8409,0c-0.4783,-0.0058 -0.9454,0.1442 -1.3305,0.4274s-0.6671,0.6841 -0.8033,1.1418"/>
   <path id="svg_4" d="m34.12623,49.97689l-0.0498,6.582l3.8409,0l0,-3.8413l4.1325,0c0.852,0.0067 1.6851,-0.2506 2.3845,-0.7364c0.6993,-0.4858 1.2305,-1.1761 1.5204,-1.9759l-11.8285,-0.0284z"/>
  </g>
  <path id="svg_5" fill="url(#b)" d="m42.13523,44.55889l-8.5353,-0.0639c0.2491,1.387 0.9764,2.6433 2.056,3.551c1.0795,0.9078 2.4432,1.4099 3.8547,1.4193l6.6148,0.0497c0.0557,-0.271 0.0843,-0.5469 0.0854,-0.8236c0.0076,-1.091 -0.4189,-2.1405 -1.1856,-2.9179c-0.7668,-0.7775 -1.8113,-1.2194 -2.9042,-1.2288"/>
  <path id="svg_6" fill="#f59d1a" d="m26.50123,27.40988c0.0127,1.4196 -0.3974,2.811 -1.1783,3.9975c-0.7808,1.1866 -1.8972,2.1148 -3.2074,2.6668c-1.3102,0.5521 -2.7552,0.7031 -4.1515,0.4339c-1.3963,-0.2691 -2.6811,-0.9464 -3.6912,-1.9457c-1.0101,-0.9994 -1.7,-2.2758 -1.9821,-3.6673c-0.2822,-1.3914 -0.1439,-2.8352 0.3974,-4.148c0.5413,-1.3129 1.461,-2.4356 2.6426,-3.2257c1.1816,-0.79 2.5716,-1.2119 3.9938,-1.2119c0.9394,-0.0085 1.8712,0.1689 2.7415,0.522c0.8704,0.353 1.6621,0.8747 2.3294,1.5349c0.6672,0.6602 1.1969,1.4458 1.5583,2.3114c0.3615,0.8657 0.5475,1.7942 0.5475,2.7321z"/>
  <path id="svg_7" fill="#e7001b" d="m17.65323,27.51089c0.0127,1.4196 -0.3974,2.811 -1.1783,3.9975c-0.7808,1.1866 -1.8972,2.1148 -3.2074,2.6668c-1.3102,0.5521 -2.7552,0.7031 -4.1515,0.4339c-1.3964,-0.2691 -2.6811,-0.9464 -3.6912,-1.9457c-1.0101,-0.9994 -1.7,-2.2758 -1.9822,-3.6673c-0.2821,-1.3914 -0.1438,-2.8352 0.3975,-4.148c0.5413,-1.3129 1.461,-2.4356 2.6426,-3.2257c1.1815,-0.79 2.5716,-1.2119 3.9938,-1.2119c0.9394,-0.0085 1.8712,0.1689 2.7415,0.522c0.8704,0.353 1.6621,0.8747 2.3293,1.5349c0.6673,0.6602 1.197,1.4458 1.5584,2.3114c0.3615,0.8657 0.5475,1.7942 0.5475,2.7321z"/>
  <path id="svg_8" fill="#fc5f01" d="m14.90023,21.92289c-0.8488,0.6643 -1.5352,1.5125 -2.0072,2.4806s-0.7173,2.0307 -0.7173,3.1074s0.2453,2.1393 0.7173,3.1074s1.1584,1.8164 2.0072,2.4806c0.8489,-0.6642 1.5352,-1.5125 2.0073,-2.4806c0.472,-0.9681 0.7172,-2.0307 0.7172,-3.1074s-0.2452,-2.1393 -0.7172,-3.1074c-0.4721,-0.9681 -1.1584,-1.8163 -2.0073,-2.4806z"/>
  <path id="svg_9" fill="#e30520" d="m76.38323,50.21089c0.003,1.4202 -0.418,2.8093 -1.207,3.9907c-0.79,1.1814 -1.914,2.1018 -3.229,2.6443c-1.314,0.5425 -2.761,0.6826 -4.156,0.4025c-1.395,-0.28 -2.675,-0.9676 -3.677,-1.9754c-1.0028,-1.0078 -1.6826,-2.2903 -1.9534,-3.6846s-0.1204,-2.8375 0.4322,-4.1463c0.5527,-1.3088 1.4822,-2.424 2.6712,-3.2042c1.189,-0.7801 2.583,-1.1898 4.006,-1.1772c0.938,0 1.867,0.1853 2.734,0.5452c0.866,0.36 1.652,0.8874 2.313,1.552s1.184,1.4533 1.539,2.3205c0.354,0.8672 0.533,1.7958 0.527,2.7325z"/>
  <path id="svg_10" fill="#0081c4" d="m67.54823,50.14689c0.003,1.4202 -0.418,2.8093 -1.207,3.9907c-0.79,1.1813 -1.914,2.1018 -3.2286,2.6443c-1.3148,0.5425 -2.7615,0.6826 -4.1564,0.4025c-1.3948,-0.28 -2.6747,-0.9676 -3.6773,-1.9754c-1.0025,-1.0078 -1.6823,-2.2903 -1.9531,-3.6846s-0.1203,-2.8375 0.4323,-4.1463s1.4824,-2.4241 2.6713,-3.2042s2.5833,-1.1898 4.0059,-1.1772c0.9383,0 1.8673,0.1853 2.7335,0.5452c0.8664,0.36 1.6524,0.8874 2.3134,1.552s1.184,1.4533 1.539,2.3205c0.354,0.8672 0.533,1.7958 0.527,2.7325z"/>
  <path id="svg_11" fill="#0f5787" d="m64.83823,44.53689c-0.854,0.6584 -1.546,1.5018 -2.0248,2.4666c-0.4788,0.9649 -0.7315,2.0258 -0.7391,3.1025c-0.0075,1.0767 0.2304,2.141 0.6956,3.1124c0.4653,0.9714 1.1453,1.8244 1.9903,2.4946c0.853,-0.6583 1.545,-1.5018 2.024,-2.4666s0.732,-2.0257 0.739,-3.1024c0.008,-1.0767 -0.23,-2.141 -0.695,-3.1124c-0.465,-0.9715 -1.146,-1.8245 -1.99,-2.4947z"/>
  <path id="svg_12" fill="url(#a)" d="m49.07723,20.65889l-5.7685,13.739l-3.7626,0l-2.8451,-10.963c-0.027,-0.2582 -0.1204,-0.5051 -0.2712,-0.7166s-0.3539,-0.3805 -0.5894,-0.4905c-1.1178,-0.535 -2.2982,-0.9286 -3.5137,-1.1716l0.0853,-0.3976l6.0601,0c0.3993,-0.0006 0.7854,0.1428 1.0872,0.4037c0.3019,0.2609 0.4993,0.6218 0.5558,1.0164l1.5008,7.9454l3.7058,-9.3513l3.7555,-0.0139zm14.745,9.2306c0,-3.6213 -5.0218,-3.8272 -4.9792,-5.4461c0,-0.4899 0.4837,-1.0153 1.5079,-1.1502c1.2033,-0.1125 2.4147,0.1009 3.5063,0.6177l0.626,-2.9112c-1.064,-0.3995 -2.1914,-0.6063 -3.3285,-0.6106c-3.5208,0 -5.996,1.8674 -6.0174,4.5372c0,1.981 1.764,3.0815 3.1154,3.7348c1.3514,0.6532 1.8493,1.1077 1.8493,1.7041c0,0.923 -1.1096,1.3278 -2.1338,1.342c-1.2631,0.033 -2.5139,-0.2553 -3.6346,-0.8379l-0.6473,3.0106c1.262,0.4821 2.6035,0.723 3.9547,0.71c3.7413,0 6.1882,-1.8461 6.1952,-4.7004l-0.014,0zm9.303,4.4874l3.258,0l-2.845,-13.732l-3.037,0c-0.325,-0.0026 -0.643,0.0921 -0.913,0.2719c-0.27,0.1797 -0.48,0.4362 -0.602,0.7364l-5.342,12.731l3.734,0l0.711,-2.052l4.567,0l0.469,2.0447zm-3.969,-4.8638l1.871,-5.1549l1.088,5.1691l-2.959,-0.0142zm-14.993,-8.8542l-2.9447,13.739l-3.5564,0l2.9447,-13.732l3.5564,-0.007z"/>
 </g>
</svg>