<svg width="80" height="80" xmlns="http://www.w3.org/2000/svg">
 <g>
  <path id="svg_3" d="m40.52894,32.36254l0,15.87991l2.77015,0l0,-5.65556l1.32967,0c3.62335,0 5.92811,-1.67449 5.92811,-5.1898c0,-3.20481 -2.14963,-5.03455 -5.89487,-5.03455l-4.13306,0zm4.13306,8.06194l-1.37399,0l0,-5.91061l1.46264,0c1.9391,0 2.99176,0.88715 2.99176,2.88322c0,2.0737 -1.16346,3.02739 -3.0804,3.02739zm17.65138,7.81797l-4.1663,-15.87991l-3.50147,0l-4.21062,15.87991l2.38233,0l0.88645,-3.47096l4.87546,0l0.85321,3.47096l2.88095,0zm-8.06667,-5.62229l1.89478,-7.35222l1.8837,7.35222l-3.7674,0l-0.01108,0zm19.21374,-10.25763l-2.58178,0l-3.24661,6.63142l-3.23553,-6.63142l-2.98068,0l4.66493,9.09325l0,6.78667l2.77015,0l0,-6.78667l4.63169,-9.09325l-0.02216,0z"/>
  <g id="svg_4">
   <rect y="24.8366" id="svg_1" rx="12" height="29.22876" width="29.63319" x="7.2481" fill="#FC3F1D"/>
   <path id="svg_2" d="m23.95762,33.11808l-1.35649,0c-2.51568,0 -3.83517,1.2544 -3.83517,3.10556c0,2.08255 0.91255,3.06902 2.78698,4.32342l1.54147,1.02301l-4.43943,6.56429l-3.32957,0l3.99549,-5.87011c-2.30604,-1.61976 -3.58854,-3.20298 -3.58854,-5.87011c0,-3.33695 2.3677,-5.62654 6.84412,-5.62654l4.43943,0l0,17.3424l-3.05827,0l0,-14.99192z" fill="#fff"/>
  </g>
 </g>
</svg>